<svg xmlns="http://www.w3.org/2000/svg" xmlns:xlink="http://www.w3.org/1999/xlink" version="1.1" x="0px" y="0px" viewBox="0 0 100 125" enable-background="new 0 0 100 100" xml:space="preserve"><path d="M49.5,7.9c10.9-0.1,21.2,3.9,29.2,11.3l0-3.3c0-1.2,0.9-2.1,2.1-2.1c1.2,0,2.1,0.9,2.1,2.1l0.1,8.4c0,0.6-0.2,1.1-0.6,1.5  c-0.4,0.4-0.9,0.6-1.5,0.6l-8.4,0.1c0,0,0,0,0,0c-1.2,0-2.1-0.9-2.1-2.1c0-1.2,0.9-2.1,2.1-2.1l3.2,0c-7.1-6.6-16.3-10.1-26.1-10  C39.4,12.2,30,16.3,22.9,23.5C12.7,34,9.4,49,14.4,62.8c0.4,1.1-0.2,2.3-1.3,2.7c-0.2,0.1-0.5,0.1-0.7,0.1c-0.9,0-1.7-0.5-2-1.4  C7.7,56.9,7.2,49,8.8,41.4c1.6-7.9,5.5-15,11.1-20.8C27.7,12.5,38.3,8,49.5,7.9z M50.5,92.1c11.2-0.1,21.8-4.6,29.6-12.7  c5.6-5.8,9.5-13,11.1-20.8c1.6-7.6,1-15.6-1.6-22.9c-0.4-1.1-1.6-1.7-2.7-1.3c-1.1,0.4-1.7,1.6-1.3,2.7C90.6,51,87.3,66,77.1,76.5  C70,83.7,60.6,87.8,50.4,87.9c-9.7,0.1-19-3.4-26.1-10l3.2,0c1.2,0,2.1-1,2.1-2.1c0-1.2-1-2.1-2.1-2.1l-8.4,0.1  c-0.6,0-1.1,0.2-1.5,0.6c-0.4,0.4-0.6,0.9-0.6,1.5l0.1,8.4c0,1.2,1,2.1,2.1,2.1c0,0,0,0,0,0c1.2,0,2.1-1,2.1-2.1l0-3.3  c7.8,7.3,17.9,11.3,28.7,11.3C50.2,92.1,50.3,92.1,50.5,92.1z M63,38.5v5.7c2.6,0.5,4.5,2.7,4.5,5.4v15.2c0,3-2.5,5.5-5.5,5.5H38  c-3,0-5.5-2.5-5.5-5.5V49.7c0-2.7,2-5,4.5-5.4v-5.7c0-7.2,5.8-13,13-13S63,31.3,63,38.5z M41.2,38.5v5.6h17.5v-5.6  c0-4.8-3.9-8.8-8.8-8.8C45.2,29.7,41.2,33.7,41.2,38.5z M63.3,49.7c0-0.7-0.6-1.3-1.3-1.3H38c-0.7,0-1.3,0.6-1.3,1.3v15.2  c0,0.7,0.6,1.3,1.3,1.3H62c0.7,0,1.3-0.6,1.3-1.3V49.7z M50.5,52.4c-0.2,0-0.4-0.1-0.6-0.1h0c-1.2,0-2.3,0.7-2.8,1.8  c-0.6,1.3-0.2,2.8,1,3.7c0,0,0,0,0,0c0,0,0,0,0,0.1c0,1.1,0,2.2,0,3.4c0,1,0.8,1.8,1.8,1.8c0.3,0,0.6-0.1,0.9-0.2  c0.6-0.3,0.9-0.9,0.9-1.6c0-1.1,0-2.2,0-3.3c0-0.1,0-0.1,0.1-0.2c0.8-0.6,1.3-1.5,1.2-2.5C53.1,53.9,52,52.7,50.5,52.4z"/><text x="0" y="115" fill="#000000" font-size="5px" font-weight="bold" font-family="'Helvetica Neue', Helvetica, Arial-Unicode, Arial, Sans-serif">Created by Gregor Cresnar</text><text x="0" y="120" fill="#000000" font-size="5px" font-weight="bold" font-family="'Helvetica Neue', Helvetica, Arial-Unicode, Arial, Sans-serif">from the Noun Project</text></svg>