<svg xmlns:x="http://ns.adobe.com/Extensibility/1.0/" xmlns:i="http://ns.adobe.com/AdobeIllustrator/10.0/" xmlns:graph="http://ns.adobe.com/Graphs/1.0/" xmlns="http://www.w3.org/2000/svg" xmlns:xlink="http://www.w3.org/1999/xlink" version="1.1" x="0px" y="0px" viewBox="0 0 100 125" enable-background="new 0 0 100 100" xml:space="preserve"><metadata><sfw xmlns="http://ns.adobe.com/SaveForWeb/1.0/"><slices/><sliceSourceBounds width="1549.7" height="1444.2" x="-103.4" y="-1447" bottomLeftOrigin="true"/></sfw></metadata><path d="M1.3,55.2c-1-0.9-1.1-1.8-0.7-2.5c1.3-2.2,3.1-3.9,5.1-5.5c0.3-0.3,0.6-0.5,1-0.7C7,46,7.4,45.5,7.8,45  c1.1-1.1,2.8-1.2,3.9-0.1v0l0.1,0.1c1.9,1.8,3.3,3.9,4.9,6c0.8,1.1,1.2,2.5,0.9,4.3c-0.1,0.6-0.4,1.2-1,1.6c-0.3,0.2-0.9,0.4-1,0.3  c-1.2-1.4-2.5-2.6-3.8-3.9c0.6,2.2,1.2,5.4,2.3,8.8c1.8,5.7,5,10.9,9,15.3c4,4.4,9,7.9,14.4,10.2c10.9,4.7,23.9,4.4,34.5-1  c1.7-0.8,3.3-1.8,4.9-2.9c1.6-1,3-2.2,4.4-3.5c5.5-5.3,9.5-12,11.5-19.4c1.9-7.3,1.9-15.2-0.3-22.5c-2.1-7.3-6.3-14-12-19.1  c-5.7-5.1-12.8-8.7-20.4-10c-0.8-0.2-1.6-0.2-2.4-0.4c-0.8-0.1-1.5-0.2-2.3-0.2l-1.2-0.1l-0.6,0l-0.2,0l0,0l-0.1,0l-0.3,0  c-0.8,0-1.6,0-2.4,0c-3.2,0.1-6.3,0.5-9.3,1.2c-6,1.4-11.5,3.8-16.2,6.8c-0.7,0.5-1.4,0.9-2,1.2c-0.6,0.4-1,0.6-1.4,0.8  c-0.8,0.3-1.1,0.2-0.7-0.7c0.1-0.2,0.3-0.5,0.5-0.9c0.1-0.2,0.2-0.4,0.4-0.6c0.2-0.2,0.3-0.4,0.5-0.6c0.4-0.4,0.7-0.9,1.1-1.3  c0.4-0.4,0.8-0.7,1.2-1C33,7.1,43.3,3.6,53.9,3.7l1.8,0l2,0.1c0.7,0,1.3,0.1,2,0.2c0.6,0.1,1.3,0.2,1.9,0.3c2.6,0.5,5.1,1.1,7.6,2  c4.9,1.8,9.5,4.3,13.6,7.6c4,3.3,7.6,7.3,10.3,11.7c2.7,4.4,4.7,9.3,5.7,14.4c2.1,10.1,0.6,20.9-4.2,29.8  c-4.7,10.2-13.4,18.5-23.8,22.9c-10.4,4.4-22.5,4.7-33.2,0.8c-6.6-2.4-12.7-6.5-17.4-11.7c-4.8-5.2-8.3-11.5-10.2-18.2  c-1.1-3.7-1.3-7-1.1-9.4c0.1-1.2,0.3-2.1,0.5-2.8c0.1-0.3,0.2-0.5,0.3-0.7c-0.1-0.1-0.1-0.2-0.2-0.3c-0.8,1-1.6,2-2.5,2.9  c-0.9,0.9-2,1.7-3.1,2.4C3.2,56.3,2.2,56,1.3,55.2z M35.6,45.1c1.2,0,2.4,0,3.5-0.1c-0.2-0.5-0.4-1.1-0.4-1.7  c-0.2-1.5-0.3-2.9-0.3-4.4l-0.1-1.1l0-0.3l0-0.3l0-0.7c0-0.5,0.1-0.9,0.1-1.4l0.1-0.7l0.2-0.7c0.9-3.6,3.2-6.8,6.3-8.7  c1-0.6,2-1.1,3.1-1.4l0.8-0.3l0.8-0.3c0.5-0.2,1.2-0.3,1.8-0.4l0.5-0.1l0.4,0l0.7,0l0.1,0l0,0l0.2,0l0,0l0.2,0l0.4,0l0.9,0  c2.3,0.2,4.6,1.1,6.4,2.4c1.9,1.3,3.4,3.1,4.5,5c1.1,2,1.6,4.2,1.7,6.5l0,0.6l0,0.3l0,0l0,0l0,0.1l0,0.1l0,0.1  c0,0.4-0.1,0.8-0.1,1.2c-0.1,0.8-0.3,1.5-0.5,2.3c-0.3,1.2-0.8,2.4-1.3,3.4c1.3,0,2.5,0,3.8,0l3.2,0l0,0c1.4,0,2.5,1.1,2.5,2.5v0  c0,6-0.3,12-0.5,17.9c-0.1,3.9-1.1,6.6-2.3,6.8c-1.4,0.3-2.1-2.9-2.2-6.7c-0.2-5-0.4-10-0.4-15c-6.4,0-12.7,0-19.1-0.2  c-2.1-0.1-4.2-0.1-6.3-0.2c-2.4,0.1-4.7,0.1-7.1,0.1c0,6.5-0.1,13-0.3,19.5c4.6,0.1,9.2,0.2,13.8,0.4c7.1,0.2,14,0.9,19.7,2.4  c1.7,0.5,2.9,1.1,2,1.8c-0.5,0.4-1.9,0.9-2.8,0.9c-11.7-0.2-23.5,0-35.3-0.1l0,0c-1.6,0-3-1.4-3-3c0.1-8.3,0.3-16.6,0.9-24.8l0-0.3  c0.1-1,1-1.8,2-1.7l0,0C34.7,45,35.1,45.1,35.6,45.1z M42.8,45c6.6-0.1,13.2-0.3,19.7-0.4c0.1-2.2,0.1-4.3,0.1-6.5l0-0.4l0-0.1  l0-0.2l-0.1-0.8c0-0.2,0-0.2,0-0.3L62.4,36c0-0.2,0-0.3-0.1-0.6c-0.2-0.8-0.5-1.6-0.9-2.4c-0.4-0.7-0.9-1.4-1.5-2.1  c-0.6-0.6-1.2-1.2-2-1.7c-1.4-0.9-3.1-1.7-5-2c-0.7,0-1.1,0.2-1.5,0.3c-0.5,0.2-1,0.3-1.5,0.5c-0.9,0.4-1.8,0.9-2.6,1.6  c-0.8,0.7-1.4,1.4-2,2.3c-0.5,0.9-0.9,1.8-1.2,2.7L44,35.6c0,0.3-0.1,0.6-0.2,0.9c0,0.3-0.1,0.6-0.1,0.9l-0.1,1.1  c-0.1,1.5-0.2,3.1-0.4,4.6C43.2,43.9,43,44.5,42.8,45z"/><text x="0" y="115" fill="#000000" font-size="5px" font-weight="bold" font-family="'Helvetica Neue', Helvetica, Arial-Unicode, Arial, Sans-serif">Created by Gregor Cresnar</text><text x="0" y="120" fill="#000000" font-size="5px" font-weight="bold" font-family="'Helvetica Neue', Helvetica, Arial-Unicode, Arial, Sans-serif">from the Noun Project</text></svg>