<svg xmlns="http://www.w3.org/2000/svg" xmlns:xlink="http://www.w3.org/1999/xlink" version="1.1" x="0px" y="0px" viewBox="0 0 24 30" style="enable-background:new 0 0 24 24;" xml:space="preserve"><g><path d="M6.692,19.861c-0.125-0.183-0.375-0.232-0.556-0.104l-0.392,0.267v-0.475c0-0.221-0.179-0.4-0.4-0.4s-0.4,0.18-0.4,0.4   v0.475l-0.392-0.267c-0.182-0.127-0.431-0.077-0.556,0.104c-0.125,0.183-0.077,0.432,0.105,0.556l0.532,0.363l-0.532,0.363   c-0.183,0.124-0.23,0.373-0.105,0.556c0.078,0.113,0.203,0.175,0.331,0.175c0.078,0,0.156-0.022,0.225-0.07l0.392-0.267v0.475   c0,0.221,0.179,0.4,0.4,0.4s0.4-0.18,0.4-0.4v-0.475l0.392,0.267c0.069,0.048,0.147,0.07,0.225,0.07   c0.128,0,0.253-0.062,0.331-0.175c0.125-0.183,0.077-0.432-0.105-0.556L6.055,20.78l0.532-0.363   C6.77,20.293,6.817,20.044,6.692,19.861z"/><path d="M10.02,19.861c-0.125-0.183-0.374-0.23-0.556-0.105l-0.392,0.267v-0.474c0-0.221-0.179-0.4-0.4-0.4s-0.4,0.18-0.4,0.4   v0.474L7.88,19.756c-0.182-0.125-0.431-0.076-0.556,0.105C7.2,20.044,7.247,20.293,7.43,20.418l0.531,0.362L7.43,21.142   c-0.183,0.125-0.23,0.374-0.105,0.557c0.078,0.113,0.203,0.175,0.331,0.175c0.078,0,0.156-0.022,0.225-0.069l0.392-0.267v0.474   c0,0.221,0.179,0.4,0.4,0.4s0.4-0.18,0.4-0.4v-0.474l0.392,0.267c0.069,0.047,0.147,0.069,0.225,0.069   c0.128,0,0.253-0.062,0.331-0.175c0.125-0.183,0.077-0.432-0.105-0.557L9.383,20.78l0.531-0.362   C10.097,20.293,10.144,20.044,10.02,19.861z"/><path d="M13.345,19.861c-0.124-0.183-0.373-0.229-0.555-0.104l-0.392,0.267v-0.475c0-0.221-0.179-0.4-0.4-0.4s-0.4,0.18-0.4,0.4   v0.475l-0.392-0.267c-0.183-0.127-0.431-0.077-0.556,0.104c-0.125,0.183-0.077,0.432,0.105,0.556l0.532,0.363l-0.532,0.363   c-0.183,0.124-0.23,0.373-0.105,0.556c0.078,0.113,0.203,0.175,0.331,0.175c0.078,0,0.156-0.022,0.225-0.07l0.392-0.267v0.475   c0,0.221,0.179,0.4,0.4,0.4s0.4-0.18,0.4-0.4v-0.475l0.392,0.267c0.069,0.048,0.147,0.07,0.225,0.07   c0.128,0,0.253-0.062,0.33-0.175c0.125-0.183,0.078-0.432-0.104-0.556l-0.533-0.363l0.533-0.363   C13.423,20.293,13.47,20.044,13.345,19.861z"/><path d="M15.325,19.148c-0.221,0-0.4,0.18-0.4,0.4v0.475l-0.392-0.267c-0.182-0.125-0.431-0.078-0.556,0.104   s-0.078,0.432,0.104,0.556l0.532,0.363l-0.532,0.363c-0.183,0.124-0.229,0.373-0.104,0.556c0.077,0.113,0.202,0.175,0.33,0.175   c0.078,0,0.156-0.022,0.226-0.07l0.392-0.267v0.475c0,0.221,0.18,0.4,0.4,0.4s0.4-0.18,0.4-0.4v-0.474l0.39,0.266   c0.069,0.048,0.147,0.07,0.226,0.07c0.128,0,0.253-0.062,0.33-0.175c0.125-0.183,0.078-0.432-0.104-0.556l-0.532-0.363l0.532-0.363   c0.183-0.124,0.229-0.373,0.104-0.556c-0.124-0.183-0.372-0.229-0.556-0.104l-0.39,0.266v-0.474   C15.726,19.328,15.546,19.148,15.325,19.148z"/><path d="M17.303,21.698c0.078,0.113,0.203,0.175,0.331,0.175c0.078,0,0.156-0.022,0.226-0.069l0.392-0.267v0.474   c0,0.221,0.18,0.4,0.4,0.4s0.4-0.18,0.4-0.4v-0.473l0.391,0.266c0.069,0.047,0.147,0.069,0.226,0.069   c0.128,0,0.253-0.062,0.331-0.175c0.124-0.183,0.077-0.432-0.105-0.557l-0.531-0.362l0.531-0.362   c0.183-0.125,0.229-0.374,0.105-0.557c-0.125-0.183-0.374-0.229-0.557-0.105l-0.391,0.266v-0.473c0-0.221-0.18-0.4-0.4-0.4   s-0.4,0.18-0.4,0.4v0.474l-0.392-0.267c-0.183-0.123-0.43-0.077-0.557,0.105c-0.124,0.183-0.077,0.432,0.105,0.557l0.531,0.362   l-0.531,0.362C17.226,21.267,17.179,21.516,17.303,21.698z"/><path d="M9.692,22.91h-2.04c-0.221,0-0.4,0.18-0.4,0.4s0.179,0.4,0.4,0.4h2.04c0.221,0,0.4-0.18,0.4-0.4S9.913,22.91,9.692,22.91z"/><path d="M16.342,22.91h-2.03c-0.221,0-0.4,0.18-0.4,0.4s0.18,0.4,0.4,0.4h2.03c0.221,0,0.4-0.18,0.4-0.4S16.562,22.91,16.342,22.91   z"/><path d="M19.672,22.91h-2.04c-0.221,0-0.4,0.18-0.4,0.4s0.18,0.4,0.4,0.4h2.04c0.221,0,0.4-0.18,0.4-0.4S19.893,22.91,19.672,22.91   z"/><path d="M13.012,22.91h-2.03c-0.221,0-0.4,0.18-0.4,0.4s0.179,0.4,0.4,0.4h2.03c0.221,0,0.4-0.18,0.4-0.4   S13.232,22.91,13.012,22.91z"/><path d="M6.362,22.91h-2.03c-0.221,0-0.4,0.18-0.4,0.4s0.179,0.4,0.4,0.4h2.03c0.221,0,0.4-0.18,0.4-0.4S6.583,22.91,6.362,22.91z"/><path d="M14.075,16.043V10.51c0-1.344-1.032-2.44-2.343-2.569V4.663c0-2.412-1.962-4.374-4.374-4.374S2.984,2.251,2.984,4.663V7.94   C1.672,8.069,0.64,9.165,0.64,10.51v5.533c0,1.431,1.164,2.596,2.595,2.596h8.245C12.911,18.639,14.075,17.474,14.075,16.043z    M7.358,1.089c1.971,0,3.574,1.604,3.574,3.574v3.252H3.784V4.663C3.784,2.692,5.387,1.089,7.358,1.089z M1.44,16.043V10.51   c0-0.99,0.805-1.795,1.795-1.795h8.037c0.021,0.003,0.039,0.012,0.06,0.012s0.04-0.009,0.06-0.012h0.088   c0.99,0,1.794,0.805,1.794,1.795v5.533c0,0.99-0.805,1.795-1.794,1.795H3.235C2.245,17.838,1.44,17.033,1.44,16.043z"/><path d="M21.403,10.568l0.201-0.352c0.176-0.299,0.179-0.658,0.006-0.961c-0.175-0.305-0.488-0.486-0.841-0.486h-0.118V2.93   c0-0.095-0.034-0.187-0.096-0.259L19.635,1.59c-0.346-0.406-1.035-0.404-1.38,0l-0.921,1.081c-0.062,0.072-0.096,0.164-0.096,0.259   v0.461c0,0.15,0,0.167,0.671,0.839l-0.555,0.554C17.24,4.898,17.206,5.07,17.269,5.22c0.021,0.052,0.054,0.099,0.093,0.136   c0.035,0.035,0.321,0.32,0.548,0.546l-0.555,0.555c-0.114,0.114-0.148,0.287-0.086,0.436c0.021,0.052,0.054,0.098,0.093,0.136   c0.034,0.034,0.32,0.32,0.548,0.547L17.354,8.13c-0.099,0.099-0.15,0.153-0.117,0.29c0,0.019,0,0.155,0.001,0.348h-0.12   c-0.353,0-0.666,0.182-0.841,0.486c-0.173,0.303-0.17,0.662,0.004,0.957l0.204,0.356c-1.18,0.794-1.958,2.14-1.958,3.666   c0,2.435,1.981,4.416,4.417,4.416c2.435,0,4.416-1.981,4.416-4.416C23.36,12.708,22.583,11.361,21.403,10.568z M20.77,9.568   c0.085,0,0.128,0.052,0.146,0.083c0.018,0.03,0.04,0.09-0.003,0.162L20.7,10.185c-0.017-0.007-0.032-0.017-0.048-0.024V9.568H20.77   z M18.758,7.293c-0.239-0.239-0.419-0.418-0.556-0.552l0.556-0.556c0.156-0.156,0.156-0.409,0-0.565   c-0.239-0.239-0.419-0.418-0.556-0.552l0.556-0.555c0.156-0.156,0.156-0.409,0-0.565c0,0-0.493-0.493-0.719-0.72V3.078l0.825-0.969   h0.161l0.825,0.969v6.081c0,0.003-0.002,0.006-0.002,0.01s0.002,0.006,0.002,0.01v0.735c-0.293-0.061-0.596-0.095-0.906-0.095   c-0.31,0-0.613,0.034-0.905,0.095c0-0.296,0-0.55,0-0.742c0,0,0-0.001,0-0.001s0-0.001,0-0.001c0-0.278-0.001-0.466-0.002-0.587   l0.721-0.721C18.914,7.703,18.914,7.45,18.758,7.293z M16.973,9.809c-0.04-0.068-0.018-0.128,0-0.158   c0.018-0.031,0.061-0.083,0.146-0.083h0.12c0,0.223,0,0.434,0,0.593c-0.017,0.007-0.033,0.017-0.05,0.025L16.973,9.809z    M18.944,17.849c-1.994,0-3.616-1.621-3.616-3.615s1.622-3.617,3.616-3.617s3.615,1.623,3.615,3.617S20.938,17.849,18.944,17.849z"/><path d="M21.143,14.142h-4.397c-0.221,0-0.4,0.18-0.4,0.4c0,1.434,1.166,2.6,2.6,2.6c1.433,0,2.599-1.166,2.599-2.6   C21.543,14.321,21.363,14.142,21.143,14.142z M18.944,16.341c-0.854,0-1.572-0.599-1.755-1.398h3.509   C20.516,15.742,19.799,16.341,18.944,16.341z"/><path d="M8.557,12.238c0-0.662-0.539-1.2-1.2-1.2s-1.2,0.538-1.2,1.2v0.602c-0.268,0.297-0.413,0.668-0.413,1.063   c0,0.89,0.724,1.613,1.613,1.613s1.613-0.724,1.613-1.612c0.001-0.396-0.144-0.767-0.413-1.064V12.238z M7.357,14.716   c-0.448,0-0.813-0.364-0.813-0.812c0-0.226,0.099-0.438,0.279-0.599c0.085-0.076,0.134-0.185,0.134-0.299v-0.768   c0-0.22,0.18-0.4,0.4-0.4c0.221,0,0.4,0.18,0.4,0.4v0.768c0,0.114,0.048,0.223,0.134,0.299c0.18,0.16,0.279,0.373,0.279,0.599   C8.17,14.352,7.805,14.716,7.357,14.716z"/></g><text x="0" y="39" fill="#000000" font-size="5px" font-weight="bold" font-family="'Helvetica Neue', Helvetica, Arial-Unicode, Arial, Sans-serif">Created by myiconfinder</text><text x="0" y="44" fill="#000000" font-size="5px" font-weight="bold" font-family="'Helvetica Neue', Helvetica, Arial-Unicode, Arial, Sans-serif">from the Noun Project</text></svg>