<svg xmlns="http://www.w3.org/2000/svg" xmlns:xlink="http://www.w3.org/1999/xlink" version="1.1" x="0px" y="0px" viewBox="0 0 100 125" enable-background="new 0 0 100 100" xml:space="preserve"><path d="M55.833,88.364H9.373c-1.076,0-2.295,0-3.18-0.983c-0.867-0.966-0.747-2.093-0.607-3.398  c0.062-0.571,0.107-1.354,0.194-2.382c0.719-8.444,15.177-10.86,18.192-15.898c0.439-0.733,1.343-3.355,1.636-5.128  c-1.282,0.46-12.505,0.037-12.879-0.121c-0.854-0.367-1.379-1.229-1.313-2.146c0.067-0.921,6.75-3.49,2.478-14.234  c-2.41-6.06-5.145-37.722,16.105-37.701c7.854,0.008,12.6,2.557,14.183,5.011c9.317-3.142,15.14,3.866,15.14,19.983  c0,10.625-4.913,15.858-4.811,18.625c0.219,6.021,3.867,7.733,3.779,8.672c-0.088,0.94-0.767,1.709-1.689,1.912  c-0.114,0.025-10.034,0.392-11.613-0.067c0.291,1.861,0.999,4.419,1.721,5.376c0.449,0.595,6.19,3.866,9.124,5.412V88.364z   M94.512,66.457v25.948c0,0.677-0.548,1.225-1.225,1.225H58.69c-0.677,0-1.225-0.548-1.225-1.225V66.457  c0-0.677,0.548-1.225,1.225-1.225h5.268c0.879-5.841,6.099-10.416,12.152-10.416c6.053,0,11.272,4.574,12.152,10.416h5.025  C93.964,65.232,94.512,65.78,94.512,66.457z M79.196,74.029c0-1.521-1.295-2.759-2.888-2.759s-2.888,1.237-2.888,2.759  c0,1.014,0.586,1.943,1.53,2.427c0.062,0.031,0.124,0.057,0.188,0.077v6.47c0,0.677,0.548,1.225,1.225,1.225  s1.225-0.548,1.225-1.225v-6.511c0.026-0.012,0.052-0.023,0.077-0.036C78.611,75.972,79.196,75.042,79.196,74.029z M85.778,65.232  c-0.857-4.495-4.945-7.967-9.668-7.967c-4.724,0-8.813,3.472-9.668,7.967H85.778z"/><text x="0" y="115" fill="#000000" font-size="5px" font-weight="bold" font-family="'Helvetica Neue', Helvetica, Arial-Unicode, Arial, Sans-serif">Created by H Alberto Gongora</text><text x="0" y="120" fill="#000000" font-size="5px" font-weight="bold" font-family="'Helvetica Neue', Helvetica, Arial-Unicode, Arial, Sans-serif">from the Noun Project</text></svg>