<svg xmlns="http://www.w3.org/2000/svg" xmlns:xlink="http://www.w3.org/1999/xlink" version="1.1" x="0px" y="0px" viewBox="0 0 70 87.5" style="enable-background:new 0 0 70 70;" xml:space="preserve"><g><g><path d="M61.30142,28.60098h-3.4798C56.73209,14.30222,44.77512,2.99844,30.21121,2.99844    c-15.28003,0-27.71002,12.44-27.71002,27.73004c0,8.06,3.46002,15.32996,8.97003,20.40997    c-0.03003-0.40002-0.06-0.78003-0.08002-1.12c-0.09003-1.60999-0.06-3.33002,0.08997-5.04999    c-3.01996-3.96002-4.81-8.89001-4.81-14.23999c0-12.99005,10.56-23.56,23.54004-23.56c12.263,0,22.36072,9.4361,23.43939,21.4325    h-3.28809c-0.80219,0-1.30359,0.86841-0.9024,1.56311l5.46942,9.47192c0.40112,0.69458,1.40375,0.69458,1.80487,0l5.46942-9.47192    C62.60501,29.46939,62.10367,28.60098,61.30142,28.60098z"/><g><path d="M35.6312,32.63846c-4-0.85999-9.02002-0.85999-13.02002-0.01001v-5.92999c0-3.59003,2.92004-6.51001,6.51001-6.51001     c3.59003,0,6.51001,2.91998,6.51001,6.51001V32.63846z M41.46121,35.25845c-0.5-0.5-1.15002-0.92999-1.91998-1.32001v-7.23999     c0-5.75-4.67004-10.42999-10.42004-10.42999S18.7012,20.94846,18.7012,26.69846v7.23999     c-0.77002,0.39001-1.42999,0.82001-1.91998,1.32001c-4.37,4.35999-4.80005,20.79999,0,24.67999     c3.17999,2.57001,10.88,3.44,17.10999,2.60004v-9.28003c0-2.29999,1.67999-4.21002,3.88-4.56v-4.08002     c0-1.54999,1.26001-2.79999,2.79999-2.79999c0.75,0,1.45001,0.28998,1.97003,0.82001l2.19995,2.20001     C44.34122,40.75845,43.22122,37.01846,41.46121,35.25845z M31.71121,52.01846h-5.17999l0.94-4.84998     c-1.10004-0.59003-1.86005-1.75-1.86005-3.10004c0-1.92999,1.57001-3.5,3.51001-3.5s3.51001,1.57001,3.51001,3.5     c0,1.35004-0.75,2.51001-1.85999,3.10004L31.71121,52.01846z"/></g></g><path d="M64.88712,50.64499H47.72366l-6.59204-6.59204c-0.50098-0.50098-1.3576-0.14618-1.3576,0.56232v6.02972h-1.27258   c-1.44232,0-2.61157,1.16925-2.61157,2.61163v11.1333c0,1.44232,1.16925,2.61163,2.61157,2.61163h26.38574   c1.44238,0,2.61163-1.16931,2.61163-2.61163V53.25668C67.49881,51.8143,66.32956,50.64499,64.88712,50.64499z M43.88583,60.92123   l-1.08801,0.75903l-1.17371-1.5708l-1.19202,1.5708l-1.08661-0.75903l1.17377-1.67487l-1.79504-0.55243l0.39642-1.26019   l1.76129,0.58685v-2.05438h1.46753v2.05438l1.74298-0.58685l0.41467,1.26019l-1.81329,0.55243L43.88583,60.92123z    M50.60495,60.92123l-1.08801,0.75903l-1.17371-1.5708l-1.19202,1.5708l-1.08661-0.75903l1.17377-1.67487l-1.79504-0.55243   l0.39636-1.26019l1.76135,0.58685v-2.05438h1.46747v2.05438l1.74304-0.58685l0.41467,1.26019l-1.81329,0.55243L50.60495,60.92123z    M57.32407,60.92123l-1.08801,0.75903l-1.17377-1.5708l-1.19196,1.5708l-1.08661-0.75903l1.17371-1.67487l-1.79498-0.55243   l0.39636-1.26019l1.76129,0.58685v-2.05438h1.46753v2.05438l1.74304-0.58685l0.41467,1.26019l-1.81329,0.55243L57.32407,60.92123z    M64.04312,60.92123l-1.08795,0.75903l-1.17377-1.5708l-1.19202,1.5708l-1.08655-0.75903l1.17371-1.67487l-1.79504-0.55243   l0.39642-1.26019l1.76129,0.58685v-2.05438h1.46753v2.05438l1.74304-0.58685l0.41467,1.26019l-1.81335,0.55243L64.04312,60.92123z"/></g><text x="0" y="85" fill="#000000" font-size="5px" font-weight="bold" font-family="'Helvetica Neue', Helvetica, Arial-Unicode, Arial, Sans-serif">Created by Vectors Point</text><text x="0" y="90" fill="#000000" font-size="5px" font-weight="bold" font-family="'Helvetica Neue', Helvetica, Arial-Unicode, Arial, Sans-serif">from the Noun Project</text></svg>